<svg id="surveillance-camera" xmlns="http://www.w3.org/2000/svg" width="29.713" height="19.577" viewBox="0 0 29.713 19.577">
  <path id="Path_12231" data-name="Path 12231" d="M.47,97.324H6.058l.919-.919a2.905,2.905,0,0,1-.11-1.1l-.825-.21a.469.469,0,0,1-.34-.57l.59-2.325-4.14-1.055a.469.469,0,0,1-.339-.57l1.22-4.806L1.492,85.38a.469.469,0,0,1-.34-.57l.883-3.477a.47.47,0,0,1,.57-.339l26.754,6.792a.469.469,0,0,1,.059.891l-3.995,1.6L24.34,94.537a.469.469,0,0,1-.2.276l-1.927,1.27a.469.469,0,0,1-.258.077.475.475,0,0,1-.116-.014L14.491,94.28,13.9,96.609a.47.47,0,0,1-.571.339l-.825-.21a2.942,2.942,0,0,1-3.046,1.755l-1.925,1.925a.469.469,0,0,1-.332.137H.47A.469.469,0,0,1,0,100.086V97.794A.47.47,0,0,1,.47,97.324Z" transform="translate(-0.001 -80.979)" fill="#2c3e50"/>
</svg>
