<svg height="512" viewBox="0 0 16 16" width="512" xmlns="http://www.w3.org/2000/svg"><path d="m8 4.55054v-.204285c-.293335-.174561-.5-.481018-.5-.846252 0-.55127.44873-1 1-1s1 .44873 1 1c0 .365234-.206665.671692-.5.846252v.203186c.992615.113525 1.89081.535522 2.58167 1.18842.26593-.539062.418335-1.12946.418335-1.73785 0-2.20557-1.79443-4-4-4s-4 1.79443-4 4c0 .228516.0244141.465332.074707.718262l-3.92822 3.92822c-.09375.09375-.146484.220703-.146484.353516v2.5c0 .276367.223633.5.5.5h2.5c.132812 0 .259766-.0527344.353516-.146484l.646484-.646484v-2.20703c0-2.31024 1.75616-4.19702 4-4.44946z" transform="translate(2)"/><path d="m4 0v1.94946c0 .276367-.223633.5-.5.5s-.5-.223633-.5-.5v-1.94946c-1.69165.245239-3 1.69098-3 3.44946v7h7v-7c0-1.75848-1.30835-3.20422-3-3.44946z" transform="translate(7 5.551)"/></svg>